# xmcd CD database file
#
# Track frame offsets:
#	150
#	13030
#	27318
#	48223
#	65094
#	76545
#	94475
#	110038
#	119050
#	132336
#
# Disc length: 1959 seconds
#
# Revision: 3
# Processed by: cddbd v1.4PL0 Copyright (c) Steve Scherf et al.
# Submitted via: CDex 1.40Beta9
#
DISCID=8807a50a
DTITLE=Jennifer Lynn - Right Before MY Eyes
DYEAR=2001
DGENRE=Country
TTITLE0=You and Me
TTITLE1=Still Waiting on You
TTITLE2=Don't Make Me Have To Hurt You
TTITLE3=If I Could Turn Back The Hands Of Time
TTITLE4=VCR
TTITLE5=Break It To Me Gently
TTITLE6=If I Could
TTITLE7=Three Cigarettes In An Ashtray
TTITLE8=Right Before My Eyes
TTITLE9=Dear Abbie
EXTD=YEAR: 2001 ID3G: 2
EXTT0=
EXTT1=
EXTT2=
EXTT3=
EXTT4=
EXTT5=
EXTT6=
EXTT7=
EXTT8=
EXTT9=
PLAYORDER=
